<svg width="28" height="29" viewBox="0 0 28 29" fill="none" xmlns="http://www.w3.org/2000/svg">
<g opacity="0.5">
<path d="M14 28.1093C21.732 28.1093 28 21.8168 28 14.0546C28 6.29247 21.732 0 14 0C6.26801 0 0 6.29247 0 14.0546C0 21.8168 6.26801 28.1093 14 28.1093Z" fill="white"/>
<path fill-rule="evenodd" clip-rule="evenodd" d="M6.3372 13.9063C10.4185 12.1212 13.14 10.9443 14.5017 10.3757C18.3896 8.7523 19.1975 8.47029 19.7241 8.46098C19.8399 8.45893 20.0989 8.48774 20.2666 8.62438C20.4082 8.73975 20.4472 8.89561 20.4658 9.005C20.4845 9.11438 20.5077 9.36357 20.4892 9.55828C20.2786 11.7807 19.3669 17.1738 18.9031 19.6628C18.7069 20.7161 18.3204 21.0692 17.9463 21.1038C17.1333 21.1789 16.516 20.5644 15.7285 20.0462C14.4964 19.2353 13.8003 18.7306 12.6042 17.9393C11.222 17.0249 12.118 16.5223 12.9058 15.7009C13.1119 15.486 16.694 12.2151 16.7634 11.9183C16.772 11.8812 16.7801 11.7429 16.6982 11.6698C16.6164 11.5968 16.4955 11.6218 16.4084 11.6416C16.2848 11.6698 14.3163 12.9759 10.5031 15.56C9.94434 15.9452 9.43826 16.1329 8.98483 16.123C8.48496 16.1122 7.5234 15.8393 6.80859 15.606C5.93184 15.3199 5.23501 15.1687 5.29569 14.6828C5.3273 14.4297 5.67447 14.1708 6.3372 13.9063Z" fill="#086788"/>
</g>
</svg>
