<svg width="28" height="29" viewBox="0 0 28 29" fill="none" xmlns="http://www.w3.org/2000/svg">
<g opacity="0.5">
<path d="M14 28.1093C21.732 28.1093 28 21.8168 28 14.0546C28 6.29247 21.732 0 14 0C6.26801 0 0 6.29247 0 14.0546C0 21.8168 6.26801 28.1093 14 28.1093Z" fill="white"/>
<path d="M14.8983 20.2505C8.51666 20.2505 4.87672 15.8584 4.72505 8.54999H7.92172C8.02672 13.9142 10.3833 16.1863 12.25 16.6548V8.54999H15.2601V13.1763C17.1034 12.9772 19.0399 10.869 19.6932 8.54999H22.7033C22.2016 11.4078 20.1016 13.516 18.6083 14.3827C20.1016 15.0854 22.4934 16.9242 23.4034 20.2505H20.0899C19.3783 18.0252 17.6051 16.3035 15.2601 16.0692V20.2505H14.8983Z" fill="#086788"/>
</g>
</svg>
